solid Visualization Toolkit generated SLA File
 facet normal -0.11373293570170907 -0.11373409055011643 0.98697992683914737
  outer loop
   vertex 178.51780700683594 89.245895385742188 -0.00205383007414639
   vertex 179.14836120605469 90.506919860839844 0.21592046320438385
   vertex 177.76643371582031 89.997261047363281 -0.00205383007414639
  endloop
 endfacet
 facet normal 0 -0.57839978404985548 0.81575344915671699
  outer loop
   vertex 178.51780700683594 89.245895385742188 -0.00205383007414639
   vertex 180.02053833007812 89.245895385742188 -0.00205383007414639
   vertex 180.40043640136719 90.247360229492188 0.70802229642868042
  endloop
 endfacet
 facet normal -0.36212579171882914 0.019988866410695427 0.93191488677433765
  outer loop
   vertex 179.14836120605469 90.506919860839844 0.21592046320438385
   vertex 178.51780700683594 89.245895385742188 -0.00205383007414639
   vertex 180.40043640136719 90.247360229492188 0.70802229642868042
  endloop
 endfacet
 facet normal -0.59607382942307718 -0.30152378997830653 0.74416355322874195
  outer loop
   vertex 181.15902709960938 89.930183410644531 1.1871370077133179
   vertex 180.40043640136719 90.247360229492188 0.70802229642868042
   vertex 180.02053833007812 89.245895385742188 -0.00205383007414639
  endloop
 endfacet
 facet normal -0.1689145950347713 -0.77570442660337713 0.60807113246080446
  outer loop
   vertex 181.15902709960938 89.930183410644531 1.1871370077133179
   vertex 180.02053833007812 89.245895385742188 -0.00205383007414639
   vertex 181.69357299804688 89.710884094238281 1.0558713674545288
  endloop
 endfacet
 facet normal 0 -0.91547394170250329 0.40237726335328827
  outer loop
   vertex 181.69357299804688 89.710884094238281 1.0558713674545288
   vertex 180.02053833007812 89.245895385742188 -0.00205383007414639
   vertex 181.52326965332031 89.245895385742188 -0.00205383007414639
  endloop
 endfacet
 facet normal 0 -0.86306400182332121 0.50509457407174174
  outer loop
   vertex 183.02601623535156 89.245895385742188 -0.00205383007414639
   vertex 182.91412353515625 89.715629577636719 0.80058926343917847
   vertex 181.52326965332031 89.245895385742188 -0.00205383007414639
  endloop
 endfacet
 facet normal 0.085014070680606776 -0.91712883657053723 0.38941918919987228
  outer loop
   vertex 181.52326965332031 89.245895385742188 -0.00205383007414639
   vertex 182.91412353515625 89.715629577636719 0.80058926343917847
   vertex 181.69357299804688 89.710884094238281 1.0558713674545288
  endloop
 endfacet
 facet normal 0.398537627268021 -0.65403775745925996 0.64296374040006177
  outer loop
   vertex 183.95761108398438 90.225502014160156 0.67244327068328857
   vertex 183.0562744140625 90.312126159667969 1.3192480802536011
   vertex 182.91412353515625 89.715629577636719 0.80058926343917847
  endloop
 endfacet
 facet normal 0.30667588667470791 -0.41198357206383807 0.85803230526699992
  outer loop
   vertex 183.95761108398438 90.225502014160156 0.67244327068328857
   vertex 182.91412353515625 89.715629577636719 0.80058926343917847
   vertex 184.52876281738281 89.245895385742188 -0.00205383007414639
  endloop
 endfacet
 facet normal 0 -0.86306400182332121 0.50509457407174174
  outer loop
   vertex 184.52876281738281 89.245895385742188 -0.00205383007414639
   vertex 182.91412353515625 89.715629577636719 0.80058926343917847
   vertex 183.02601623535156 89.245895385742188 -0.00205383007414639
  endloop
 endfacet
 facet normal 0.37047397530750181 -0.37047021350114628 0.85176337942428093
  outer loop
   vertex 184.52876281738281 89.245895385742188 -0.00205383007414639
   vertex 185.28012084960938 89.997261047363281 -0.00205383007414639
   vertex 183.95761108398438 90.225502014160156 0.67244327068328857
  endloop
 endfacet
 facet normal -0.58647200500677965 -0.52191536393574156 0.61939885391494742
  outer loop
   vertex 152.97123718261719 90.748634338378906 -0.00205383007414639
   vertex 153.83500671386719 91.507896423339844 1.4555646181106567
   vertex 153.24888610839844 91.580329895019531 0.96163541078567505
  endloop
 endfacet
 facet normal -0.54840102737680341 -0.54839545889262475 0.6312834021562852
  outer loop
   vertex 152.21987915039062 91.5 -0.00205383007414639
   vertex 152.97123718261719 90.748634338378906 -0.00205383007414639
   vertex 153.24888610839844 91.580329895019531 0.96163541078567505
  endloop
 endfacet
 facet normal 0 -0.91377564135830935 0.40621924777170526
  outer loop
   vertex 154.47398376464844 90.748634338378906 -0.00205383007414639
   vertex 154.49642944335938 91.318885803222656 1.2807064056396484
   vertex 152.97123718261719 90.748634338378906 -0.00205383007414639
  endloop
 endfacet
 facet normal -0.10926182903153546 -0.85358207259754493 0.50937166986078364
  outer loop
   vertex 152.97123718261719 90.748634338378906 -0.00205383007414639
   vertex 154.49642944335938 91.318885803222656 1.2807064056396484
   vertex 153.83500671386719 91.507896423339844 1.4555646181106567
  endloop
 endfacet
 facet normal 0 -0.87543528974066154 0.48333534267285289
  outer loop
   vertex 155.97673034667969 90.748634338378906 -0.00205383007414639
   vertex 155.8446044921875 91.272491455078125 0.94677603244781494
   vertex 154.47398376464844 90.748634338378906 -0.00205383007414639
  endloop
 endfacet
 facet normal 0.068743409567720681 -0.91205993324858836 0.4042536602228668
  outer loop
   vertex 154.47398376464844 90.748634338378906 -0.00205383007414639
   vertex 155.8446044921875 91.272491455078125 0.94677603244781494
   vertex 154.49642944335938 91.318885803222656 1.2807064056396484
  endloop
 endfacet
 facet normal 0.28587576273142168 -0.67292861240654367 0.68223319392076776
  outer loop
   vertex 157.00042724609375 91.590034484863281 0.7756645679473877
   vertex 156.19816589355469 92.010955810546875 1.527016282081604
   vertex 155.8446044921875 91.272491455078125 0.94677603244781494
  endloop
 endfacet
 facet normal 0.27073813200325247 -0.5657650610651469 0.77885220649192488
  outer loop
   vertex 157.00042724609375 91.590034484863281 0.7756645679473877
   vertex 155.8446044921875 91.272491455078125 0.94677603244781494
   vertex 157.47946166992188 90.748634338378906 -0.00205383007414639
  endloop
 endfacet
 facet normal 0 -0.87543528974066143 0.48333534267285289
  outer loop
   vertex 157.47946166992188 90.748634338378906 -0.00205383007414639
   vertex 155.8446044921875 91.272491455078125 0.94677603244781494
   vertex 155.97673034667969 90.748634338378906 -0.00205383007414639
  endloop
 endfacet
 facet normal 0.45255408932493091 -0.45255868457577958 0.76836542949974163
  outer loop
   vertex 157.47946166992188 90.748634338378906 -0.00205383007414639
   vertex 158.2308349609375 91.5 -0.00205383007414639
   vertex 157.00042724609375 91.590034484863281 0.7756645679473877
  endloop
 endfacet
 facet normal -0.23561302136357237 0.23561302136357237 0.94285365159597156
  outer loop
   vertex 177.76643371582031 89.997261047363281 -0.00205383007414639
   vertex 179.14836120605469 90.506919860839844 0.21592046320438385
   vertex 178.51780700683594 90.748634338378906 -0.00205383007414639
  endloop
 endfacet
 facet normal -0.2356137435348927 0.23561135110428505 0.94285388851522856
  outer loop
   vertex 179.2691650390625 91.5 -0.00205383007414639
   vertex 178.51780700683594 90.748634338378906 -0.00205383007414639
   vertex 179.14836120605469 90.506919860839844 0.21592046320438385
  endloop
 endfacet
 facet normal -0.26545200689232196 0.23739437461529223 0.93444055077776511
  outer loop
   vertex 179.2691650390625 91.5 -0.00205383007414639
   vertex 179.14836120605469 90.506919860839844 0.21592046320438385
   vertex 180.37786865234375 91.313995361328125 0.36015653610229492
  endloop
 endfacet
 facet normal -0.29729550627379364 0.29035037391910201 0.90956695317851466
  outer loop
   vertex 180.37786865234375 91.313995361328125 0.36015653610229492
   vertex 179.14836120605469 90.506919860839844 0.21592046320438385
   vertex 180.40043640136719 90.247360229492188 0.70802229642868042
  endloop
 endfacet
 facet normal -0.53158597931522578 0.0080016880829306344 0.84696653982509607
  outer loop
   vertex 181.58908081054688 90.378082275390625 1.4528223276138306
   vertex 180.40043640136719 90.247360229492188 0.70802229642868042
   vertex 181.15902709960938 89.930183410644531 1.1871370077133179
  endloop
 endfacet
 facet normal -0.45896415582761213 0.63543655700970891 0.62094467199670378
  outer loop
   vertex 181.58908081054688 90.378082275390625 1.4528223276138306
   vertex 181.83821105957031 91.143905639648438 0.8532676100730896
   vertex 180.40043640136719 90.247360229492188 0.70802229642868042
  endloop
 endfacet
 facet normal -0.27510700851126813 0.29283068453315791 0.91573267063255048
  outer loop
   vertex 181.83821105957031 91.143905639648438 0.8532676100730896
   vertex 180.37786865234375 91.313995361328125 0.36015653610229492
   vertex 180.40043640136719 90.247360229492188 0.70802229642868042
  endloop
 endfacet
 facet normal 0.034953234253113093 0.75475502184023846 0.6550749029097267
  outer loop
   vertex 181.83821105957031 91.143905639648438 0.8532676100730896
   vertex 182.41299438476562 90.506683349609375 1.5567843914031982
   vertex 183.35531616210938 91.095184326171875 0.82845354080200195
  endloop
 endfacet
 facet normal -0.19385710829946326 0.64307507016026455 0.74086022683104058
  outer loop
   vertex 181.58908081054688 90.378082275390625 1.4528223276138306
   vertex 182.41299438476562 90.506683349609375 1.5567843914031982
   vertex 181.83821105957031 91.143905639648438 0.8532676100730896
  endloop
 endfacet
 facet normal 0.41738197117513781 0.36280605000682881 0.83316508581216886
  outer loop
   vertex 183.0562744140625 90.312126159667969 1.3192480802536011
   vertex 183.35531616210938 91.095184326171875 0.82845354080200195
   vertex 182.41299438476562 90.506683349609375 1.5567843914031982
  endloop
 endfacet
 facet normal 0.57909409244205312 0.2625957252307245 0.77181184053450791
  outer loop
   vertex 183.0562744140625 90.312126159667969 1.3192480802536011
   vertex 183.95761108398438 90.225502014160156 0.67244327068328857
   vertex 183.35531616210938 91.095184326171875 0.82845354080200195
  endloop
 endfacet
 facet normal 0.38250369098020737 0.10013162229282856 0.91851215811415599
  outer loop
   vertex 183.95761108398438 90.225502014160156 0.67244327068328857
   vertex 184.49134826660156 91.011398315429688 0.36450013518333435
   vertex 183.35531616210938 91.095184326171875 0.82845354080200195
  endloop
 endfacet
 facet normal 0.42143108635318294 0 0.90686042997540484
  outer loop
   vertex 185.28012084960938 89.997261047363281 -0.00205383007414639
   vertex 185.28012084960938 91.5 -0.00205383007414639
   vertex 184.49134826660156 91.011398315429688 0.36450013518333435
  endloop
 endfacet
 facet normal 0.45897926380323339 0.036125109416542775 0.88771223483079509
  outer loop
   vertex 183.95761108398438 90.225502014160156 0.67244327068328857
   vertex 185.28012084960938 89.997261047363281 -0.00205383007414639
   vertex 184.49134826660156 91.011398315429688 0.36450013518333435
  endloop
 endfacet
 facet normal -0.66402387972105037 0.30242410384199286 0.68382157656480225
  outer loop
   vertex 152.21987915039062 91.5 -0.00205383007414639
   vertex 153.24888610839844 91.580329895019531 0.96163541078567505
   vertex 153.34092712402344 92.142181396484375 0.80252957344055176
  endloop
 endfacet
 facet normal -0.65174306720481556 0.65173644938176789 0.38790536848270823
  outer loop
   vertex 152.97123718261719 92.251365661621094 -0.00205383007414639
   vertex 152.21987915039062 91.5 -0.00205383007414639
   vertex 153.34092712402344 92.142181396484375 0.80252957344055176
  endloop
 endfacet
 facet normal -0.65174002915174467 0.65174002915174467 0.38790445834324444
  outer loop
   vertex 153.34092712402344 92.142181396484375 0.80252957344055176
   vertex 153.72261047363281 93.002738952636719 -0.00205383007414639
   vertex 152.97123718261719 92.251365661621094 -0.00205383007414639
  endloop
 endfacet
 facet normal -0.65230704058560263 0.6514910774279068 0.38736920480889819
  outer loop
   vertex 154.00892639160156 92.513778686523438 1.3024358749389648
   vertex 153.72261047363281 93.002738952636719 -0.00205383007414639
   vertex 153.34092712402344 92.142181396484375 0.80252957344055176
  endloop
 endfacet
 facet normal 0.6355341781856868 -0.14300887220162667 0.75871257458240571
  outer loop
   vertex 157.25225830078125 92.427597045898438 0.72258996963500977
   vertex 156.19816589355469 92.010955810546875 1.527016282081604
   vertex 157.00042724609375 91.590034484863281 0.7756645679473877
  endloop
 endfacet
 facet normal 0.56231212116546425 0.14812026488470917 0.81355114499389636
  outer loop
   vertex 156.37753295898438 92.719200134277344 1.2740935087203979
   vertex 156.19816589355469 92.010955810546875 1.527016282081604
   vertex 157.25225830078125 92.427597045898438 0.72258996963500977
  endloop
 endfacet
 facet normal 0.595106746281027 0 0.80364666398287821
  outer loop
   vertex 158.2308349609375 91.5 -0.00205383007414639
   vertex 158.2308349609375 93.002738952636719 -0.00205383007414639
   vertex 157.25225830078125 92.427597045898438 0.72258996963500977
  endloop
 endfacet
 facet normal 0.52588246173472586 -0.10462908630010453 0.84409738226097453
  outer loop
   vertex 157.00042724609375 91.590034484863281 0.7756645679473877
   vertex 158.2308349609375 91.5 -0.00205383007414639
   vertex 157.25225830078125 92.427597045898438 0.72258996963500977
  endloop
 endfacet
 facet normal -0.26014109425368215 0.2601437357359101 0.92986657528801497
  outer loop
   vertex 179.2691650390625 91.5 -0.00205383007414639
   vertex 180.37786865234375 91.313995361328125 0.36015653610229492
   vertex 180.02053833007812 92.251365661621094 -0.00205383007414639
  endloop
 endfacet
 facet normal -0 0.36043786858418153 0.93278322395425406
  outer loop
   vertex 181.52326965332031 92.251365661621094 -0.00205383007414639
   vertex 180.02053833007812 92.251365661621094 -0.00205383007414639
   vertex 180.37786865234375 91.313995361328125 0.36015653610229492
  endloop
 endfacet
 facet normal -0.20546004248873304 0.56094185310359712 0.80195411862352239
  outer loop
   vertex 181.83821105957031 91.143905639648438 0.8532676100730896
   vertex 181.52326965332031 92.251365661621094 -0.00205383007414639
   vertex 180.37786865234375 91.313995361328125 0.36015653610229492
  endloop
 endfacet
 facet normal -0 0.61124920210900979 0.79143819273591964
  outer loop
   vertex 183.02601623535156 92.251365661621094 -0.00205383007414639
   vertex 181.52326965332031 92.251365661621094 -0.00205383007414639
   vertex 181.83821105957031 91.143905639648438 0.8532676100730896
  endloop
 endfacet
 facet normal 0.0321255664305077 0.58912375169509101 0.80740395909991658
  outer loop
   vertex 183.35531616210938 91.095184326171875 0.82845354080200195
   vertex 183.02601623535156 92.251365661621094 -0.00205383007414639
   vertex 181.83821105957031 91.143905639648438 0.8532676100730896
  endloop
 endfacet
 facet normal -0 0.58340537465893794 0.8121811182359906
  outer loop
   vertex 184.52876281738281 92.251365661621094 -0.00205383007414639
   vertex 183.02601623535156 92.251365661621094 -0.00205383007414639
   vertex 183.35531616210938 91.095184326171875 0.82845354080200195
  endloop
 endfacet
 facet normal 0.38177401208234524 0.25140323472582421 0.88940711559327068
  outer loop
   vertex 184.49134826660156 91.011398315429688 0.36450013518333435
   vertex 184.52876281738281 92.251365661621094 -0.00205383007414639
   vertex 183.35531616210938 91.095184326171875 0.82845354080200195
  endloop
 endfacet
 facet normal 0.26589868163971819 0.26589598169473638 0.92660521152260544
  outer loop
   vertex 185.28012084960938 91.5 -0.00205383007414639
   vertex 184.52876281738281 92.251365661621094 -0.00205383007414639
   vertex 184.49134826660156 91.011398315429688 0.36450013518333435
  endloop
 endfacet
 facet normal -0.50337176803404615 0.76696878054212325 0.3979645120108159
  outer loop
   vertex 153.72261047363281 93.002738952636719 -0.00205383007414639
   vertex 154.00892639160156 92.513778686523438 1.3024358749389648
   vertex 154.47074890136719 92.964569091796875 1.0178030729293823
  endloop
 endfacet
 facet normal -0.62083547787309989 0.62084178185935002 0.4786635470889618
  outer loop
   vertex 154.47398376464844 93.754104614257812 -0.00205383007414639
   vertex 153.72261047363281 93.002738952636719 -0.00205383007414639
   vertex 154.47074890136719 92.964569091796875 1.0178030729293823
  endloop
 endfacet
 facet normal -0 0.85046918468486599 0.52602487194186853
  outer loop
   vertex 155.97673034667969 93.754104614257812 -0.00205383007414639
   vertex 154.47398376464844 93.754104614257812 -0.00205383007414639
   vertex 155.54484558105469 93.10137939453125 1.0532625913619995
  endloop
 endfacet
 facet normal -0.12006805534324289 0.78519925022133008 0.60749139873577895
  outer loop
   vertex 154.47398376464844 93.754104614257812 -0.00205383007414639
   vertex 154.47074890136719 92.964569091796875 1.0178030729293823
   vertex 155.54484558105469 93.10137939453125 1.0532625913619995
  endloop
 endfacet
 facet normal 0.57897119273951647 0.31227881724422751 0.75317614027419111
  outer loop
   vertex 156.37753295898438 92.719200134277344 1.2740935087203979
   vertex 157.25225830078125 92.427597045898438 0.72258996963500977
   vertex 157.47946166992188 93.754104614257812 -0.00205383007414639
  endloop
 endfacet
 facet normal 0.14017756716232638 0.70634019081212174 0.69385429631007312
  outer loop
   vertex 156.37753295898438 92.719200134277344 1.2740935087203979
   vertex 157.47946166992188 93.754104614257812 -0.00205383007414639
   vertex 155.54484558105469 93.10137939453125 1.0532625913619995
  endloop
 endfacet
 facet normal 0 0.85046918468486599 0.52602487194186853
  outer loop
   vertex 155.54484558105469 93.10137939453125 1.0532625913619995
   vertex 157.47946166992188 93.754104614257812 -0.00205383007414639
   vertex 155.97673034667969 93.754104614257812 -0.00205383007414639
  endloop
 endfacet
 facet normal 0.38932977529365692 0.3893337285624982 0.83477037194273596
  outer loop
   vertex 158.2308349609375 93.002738952636719 -0.00205383007414639
   vertex 157.47946166992188 93.754104614257812 -0.00205383007414639
   vertex 157.25225830078125 92.427597045898438 0.72258996963500977
  endloop
 endfacet
 facet normal -0.18085752910545524 -0.79082920112493149 0.58470482195204443
  outer loop
   vertex 181.69357299804688 89.710884094238281 1.0558713674545288
   vertex 181.91067504882812 90.107017517089844 1.6588053703308105
   vertex 181.15902709960938 89.930183410644531 1.1871370077133179
  endloop
 endfacet
 facet normal 0.10044986298156866 -0.88017020479512631 0.46390757227910112
  outer loop
   vertex 181.69357299804688 89.710884094238281 1.0558713674545288
   vertex 182.91412353515625 89.715629577636719 0.80058926343917847
   vertex 182.4447021484375 90.060791015625 1.557106614112854
  endloop
 endfacet
 facet normal 0.030322165509880622 -0.84034803481945042 0.54119843556118941
  outer loop
   vertex 181.91067504882812 90.107017517089844 1.6588053703308105
   vertex 181.69357299804688 89.710884094238281 1.0558713674545288
   vertex 182.4447021484375 90.060791015625 1.557106614112854
  endloop
 endfacet
 facet normal 0.49245443267306765 -0.63494215118723296 0.59526220809520247
  outer loop
   vertex 182.91412353515625 89.715629577636719 0.80058926343917847
   vertex 183.0562744140625 90.312126159667969 1.3192480802536011
   vertex 182.4447021484375 90.060791015625 1.557106614112854
  endloop
 endfacet
 facet normal -0.64307928715041562 -0.23615440435464527 0.72847795281807681
  outer loop
   vertex 153.83500671386719 91.507896423339844 1.4555646181106567
   vertex 153.92915344238281 92.013153076171875 1.7024662494659424
   vertex 153.24888610839844 91.580329895019531 0.96163541078567505
  endloop
 endfacet
 facet normal -0.067209168910504061 -0.7940645169836863 0.6041063403754543
  outer loop
   vertex 153.83500671386719 91.507896423339844 1.4555646181106567
   vertex 154.49642944335938 91.318885803222656 1.2807064056396484
   vertex 154.59346008300781 91.892623901367188 2.0456485748291016
  endloop
 endfacet
 facet normal -0.48014371330278588 -0.3112870012429873 0.8200990290403718
  outer loop
   vertex 153.92915344238281 92.013153076171875 1.7024662494659424
   vertex 153.83500671386719 91.507896423339844 1.4555646181106567
   vertex 154.59346008300781 91.892623901367188 2.0456485748291016
  endloop
 endfacet
 facet normal 0.09474691431590232 -0.85968505221753688 0.50196078852968795
  outer loop
   vertex 154.49642944335938 91.318885803222656 1.2807064056396484
   vertex 155.8446044921875 91.272491455078125 0.94677603244781494
   vertex 155.30474853515625 91.758644104003906 1.8812869787216187
  endloop
 endfacet
 facet normal -0.01168237110355985 -0.79921773697252951 0.60092805818492723
  outer loop
   vertex 154.59346008300781 91.892623901367188 2.0456485748291016
   vertex 154.49642944335938 91.318885803222656 1.2807064056396484
   vertex 155.30474853515625 91.758644104003906 1.8812869787216187
  endloop
 endfacet
 facet normal 0.42859232680049847 -0.67610991052237901 0.59931961948626
  outer loop
   vertex 155.8446044921875 91.272491455078125 0.94677603244781494
   vertex 156.19816589355469 92.010955810546875 1.527016282081604
   vertex 155.30474853515625 91.758644104003906 1.8812869787216187
  endloop
 endfacet
 facet normal -0.53322049304339059 0.010194909903123592 0.84591487137337329
  outer loop
   vertex 181.15902709960938 89.930183410644531 1.1871370077133179
   vertex 181.91067504882812 90.107017517089844 1.6588053703308105
   vertex 181.58908081054688 90.378082275390625 1.4528223276138306
  endloop
 endfacet
 facet normal -0.18061321772553707 0.45022277838762925 0.87445887004692879
  outer loop
   vertex 182.41299438476562 90.506683349609375 1.5567843914031982
   vertex 181.58908081054688 90.378082275390625 1.4528223276138306
   vertex 181.91067504882812 90.107017517089844 1.6588053703308105
  endloop
 endfacet
 facet normal 0.18823406369654561 0.014095132063882404 0.98202304683565667
  outer loop
   vertex 182.4447021484375 90.060791015625 1.557106614112854
   vertex 182.41299438476562 90.506683349609375 1.5567843914031982
   vertex 181.91067504882812 90.107017517089844 1.6588053703308105
  endloop
 endfacet
 facet normal 0.35313560451003206 0.025787589221481642 0.9352166834854253
  outer loop
   vertex 183.0562744140625 90.312126159667969 1.3192480802536011
   vertex 182.41299438476562 90.506683349609375 1.5567843914031982
   vertex 182.4447021484375 90.060791015625 1.557106614112854
  endloop
 endfacet
 facet normal -0.78316955784689424 0.28482241336167524 0.55274011660881928
  outer loop
   vertex 153.24888610839844 91.580329895019531 0.96163541078567505
   vertex 153.92915344238281 92.013153076171875 1.7024662494659424
   vertex 153.34092712402344 92.142181396484375 0.80252957344055176
  endloop
 endfacet
 facet normal -0.67785344383409174 0.5218343221338636 0.51788381797981775
  outer loop
   vertex 154.00892639160156 92.513778686523438 1.3024358749389648
   vertex 153.34092712402344 92.142181396484375 0.80252957344055176
   vertex 153.92915344238281 92.013153076171875 1.7024662494659424
  endloop
 endfacet
 facet normal -0.48889891871324931 0.59077569742692138 0.6418425995606325
  outer loop
   vertex 154.00892639160156 92.513778686523438 1.3024358749389648
   vertex 153.92915344238281 92.013153076171875 1.7024662494659424
   vertex 154.64865112304688 92.462890625 1.836560845375061
  endloop
 endfacet
 facet normal -0.37882094075251699 0.35068151335507675 0.85645616994588292
  outer loop
   vertex 154.64865112304688 92.462890625 1.836560845375061
   vertex 153.92915344238281 92.013153076171875 1.7024662494659424
   vertex 154.59346008300781 91.892623901367188 2.0456485748291016
  endloop
 endfacet
 facet normal 0.19398183599997071 -0.15792968484447331 0.96820930688927276
  outer loop
   vertex 155.30474853515625 91.758644104003906 1.8812869787216187
   vertex 155.43424987792969 92.319328308105469 1.9467973709106445
   vertex 154.59346008300781 91.892623901367188 2.0456485748291016
  endloop
 endfacet
 facet normal -0.067335292208418801 0.34919682869116547 0.93462694871014695
  outer loop
   vertex 155.43424987792969 92.319328308105469 1.9467973709106445
   vertex 154.64865112304688 92.462890625 1.836560845375061
   vertex 154.59346008300781 91.892623901367188 2.0456485748291016
  endloop
 endfacet
 facet normal 0.52532681024033789 0.16505343785781953 0.83473894427780648
  outer loop
   vertex 156.19816589355469 92.010955810546875 1.527016282081604
   vertex 156.37753295898438 92.719200134277344 1.2740935087203979
   vertex 155.43424987792969 92.319328308105469 1.9467973709106445
  endloop
 endfacet
 facet normal 0.40921922498107 -0.19857133869288843 0.89056670123893955
  outer loop
   vertex 155.30474853515625 91.758644104003906 1.8812869787216187
   vertex 156.19816589355469 92.010955810546875 1.527016282081604
   vertex 155.43424987792969 92.319328308105469 1.9467973709106445
  endloop
 endfacet
 facet normal -0.39255393801491278 0.74376905761683121 0.54102587246891876
  outer loop
   vertex 154.00892639160156 92.513778686523438 1.3024358749389648
   vertex 154.64865112304688 92.462890625 1.836560845375061
   vertex 154.47074890136719 92.964569091796875 1.0178030729293823
  endloop
 endfacet
 facet normal -0.12396805570235002 0.83386308663449482 0.53787012736698048
  outer loop
   vertex 155.54484558105469 93.10137939453125 1.0532625913619995
   vertex 154.47074890136719 92.964569091796875 1.0178030729293823
   vertex 154.64865112304688 92.462890625 1.836560845375061
  endloop
 endfacet
 facet normal 0.044122688030064763 0.74904408509750764 0.66104927727170193
  outer loop
   vertex 155.43424987792969 92.319328308105469 1.9467973709106445
   vertex 155.54484558105469 93.10137939453125 1.0532625913619995
   vertex 154.64865112304688 92.462890625 1.836560845375061
  endloop
 endfacet
 facet normal 0.16094020782523863 0.73272256429903015 0.66122302838922853
  outer loop
   vertex 156.37753295898438 92.719200134277344 1.2740935087203979
   vertex 155.54484558105469 93.10137939453125 1.0532625913619995
   vertex 155.43424987792969 92.319328308105469 1.9467973709106445
  endloop
 endfacet
endsolid
