solid Visualization Toolkit generated SLA File
 facet normal -0.54997194092287027 -0.62853936105470887 -0.54997194092287027
  outer loop
   vertex 159.00410461425781 34.497264862060547 257.992431640625
   vertex 159.00410461425781 34.497238159179688 257.99246215820312
   vertex 159.00407409667969 34.497264862060547 257.99246215820312
  endloop
 endfacet
 facet normal 0.54997194092287027 -0.62853936105470887 -0.54997194092287027
  outer loop
   vertex 159.00410461425781 34.497238159179688 257.99246215820312
   vertex 159.00410461425781 34.497264862060547 257.992431640625
   vertex 159.00413513183594 34.497264862060547 257.99246215820312
  endloop
 endfacet
 facet normal -0.54997194092287027 0.62853936105470887 -0.54997194092287027
  outer loop
   vertex 159.00410461425781 34.497264862060547 257.992431640625
   vertex 159.00407409667969 34.497264862060547 257.99246215820312
   vertex 159.00410461425781 34.497291564941406 257.99246215820312
  endloop
 endfacet
 facet normal 0.54997194092287027 0.62853936105470887 -0.54997194092287027
  outer loop
   vertex 159.00413513183594 34.497264862060547 257.99246215820312
   vertex 159.00410461425781 34.497264862060547 257.992431640625
   vertex 159.00410461425781 34.497291564941406 257.99246215820312
  endloop
 endfacet
 facet normal -0.54997194092287027 -0.62853936105470887 0.54997194092287027
  outer loop
   vertex 159.00410461425781 34.497238159179688 257.99246215820312
   vertex 159.00410461425781 34.497264862060547 257.99249267578125
   vertex 159.00407409667969 34.497264862060547 257.99246215820312
  endloop
 endfacet
 facet normal 0.54997194092287027 -0.62853936105470887 0.54997194092287027
  outer loop
   vertex 159.00410461425781 34.497238159179688 257.99246215820312
   vertex 159.00413513183594 34.497264862060547 257.99246215820312
   vertex 159.00410461425781 34.497264862060547 257.99249267578125
  endloop
 endfacet
 facet normal -0.54997194092287027 0.62853936105470887 0.54997194092287027
  outer loop
   vertex 159.00410461425781 34.497264862060547 257.99249267578125
   vertex 159.00410461425781 34.497291564941406 257.99246215820312
   vertex 159.00407409667969 34.497264862060547 257.99246215820312
  endloop
 endfacet
 facet normal -0.54997194092287027 -0.62853936105470887 -0.54997194092287027
  outer loop
   vertex 159.00410461425781 35.999977111816406 259.49520874023438
   vertex 159.00407409667969 36.000003814697266 259.49520874023438
   vertex 159.00410461425781 36.000003814697266 259.49517822265625
  endloop
 endfacet
 facet normal 0.54997194092287027 0.62853936105470887 0.54997194092287027
  outer loop
   vertex 159.00410461425781 34.497291564941406 257.99246215820312
   vertex 159.00410461425781 34.497264862060547 257.99249267578125
   vertex 159.00413513183594 34.497264862060547 257.99246215820312
  endloop
 endfacet
 facet normal 0.54997194092287027 -0.62853936105470887 -0.54997194092287027
  outer loop
   vertex 159.00410461425781 36.000003814697266 259.49517822265625
   vertex 159.00413513183594 36.000003814697266 259.49520874023438
   vertex 159.00410461425781 35.999977111816406 259.49520874023438
  endloop
 endfacet
 facet normal -0.54997194092287027 0.62853936105470887 -0.54997194092287027
  outer loop
   vertex 159.00410461425781 36.000003814697266 259.49517822265625
   vertex 159.00407409667969 36.000003814697266 259.49520874023438
   vertex 159.00410461425781 36.000030517578125 259.49520874023438
  endloop
 endfacet
 facet normal 0.54997194092287027 0.62853936105470887 -0.54997194092287027
  outer loop
   vertex 159.00413513183594 36.000003814697266 259.49520874023438
   vertex 159.00410461425781 36.000003814697266 259.49517822265625
   vertex 159.00410461425781 36.000030517578125 259.49520874023438
  endloop
 endfacet
 facet normal 0.96339684870822317 -0.26576464791950982 -0.035152010117260747
  outer loop
   vertex 157.50151062011719 35.463237762451172 261.52630615234375
   vertex 157.50173950195312 35.464241027832031 261.52499389648438
   vertex 157.50213623046875 35.46533203125 261.52761840820312
  endloop
 endfacet
 facet normal -0.94542124917859827 -0.15745837696279469 -0.28528147701142703
  outer loop
   vertex 157.50173950195312 35.464241027832031 261.52499389648438
   vertex 157.50151062011719 35.463237762451172 261.52630615234375
   vertex 157.50074768066406 35.466381072998047 261.527099609375
  endloop
 endfacet
 facet normal 0.93451210724872369 -0.34166702553129624 0.099753521592706271
  outer loop
   vertex 157.5015869140625 35.464569091796875 261.5301513671875
   vertex 157.50151062011719 35.463237762451172 261.52630615234375
   vertex 157.50213623046875 35.46533203125 261.52761840820312
  endloop
 endfacet
 facet normal 0.9667659609854774 -0.20948238128923019 0.14656298512660046
  outer loop
   vertex 157.50199890136719 35.468135833740234 261.53253173828125
   vertex 157.5015869140625 35.464569091796875 261.5301513671875
   vertex 157.50213623046875 35.46533203125 261.52761840820312
  endloop
 endfacet
 facet normal -0.97318629304583115 -0.21683752273452578 -0.076745864788062487
  outer loop
   vertex 157.50074768066406 35.465419769287109 261.52981567382812
   vertex 157.50074768066406 35.466381072998047 261.527099609375
   vertex 157.50151062011719 35.463237762451172 261.52630615234375
  endloop
 endfacet
 facet normal -0.73670013089153974 -0.63435055263541795 0.23424835861864252
  outer loop
   vertex 157.50074768066406 35.465419769287109 261.52981567382812
   vertex 157.50151062011719 35.463237762451172 261.52630615234375
   vertex 157.5015869140625 35.464569091796875 261.5301513671875
  endloop
 endfacet
 facet normal -0.54997194092287027 -0.62853936105470887 0.54997194092287027
  outer loop
   vertex 159.00407409667969 36.000003814697266 259.49520874023438
   vertex 159.00410461425781 35.999977111816406 259.49520874023438
   vertex 159.00410461425781 36.000003814697266 259.4952392578125
  endloop
 endfacet
 facet normal 0.54997194092287027 -0.62853936105470887 0.54997194092287027
  outer loop
   vertex 159.00410461425781 35.999977111816406 259.49520874023438
   vertex 159.00413513183594 36.000003814697266 259.49520874023438
   vertex 159.00410461425781 36.000003814697266 259.4952392578125
  endloop
 endfacet
 facet normal 0.72280544659272594 -0.43943087753095122 0.53334115746702726
  outer loop
   vertex 157.5015869140625 35.464569091796875 261.5301513671875
   vertex 157.50199890136719 35.468135833740234 261.53253173828125
   vertex 157.50115966796875 35.467792510986328 261.53338623046875
  endloop
 endfacet
 facet normal -0.54997194092287027 0.62853936105470887 0.54997194092287027
  outer loop
   vertex 159.00407409667969 36.000003814697266 259.49520874023438
   vertex 159.00410461425781 36.000003814697266 259.4952392578125
   vertex 159.00410461425781 36.000030517578125 259.49520874023438
  endloop
 endfacet
 facet normal -0.72002692665356383 -0.53678987954933655 0.43979296277593183
  outer loop
   vertex 157.5015869140625 35.464569091796875 261.5301513671875
   vertex 157.50115966796875 35.467792510986328 261.53338623046875
   vertex 157.50074768066406 35.465419769287109 261.52981567382812
  endloop
 endfacet
 facet normal 0.54997194092287027 0.62853936105470887 0.54997194092287027
  outer loop
   vertex 159.00413513183594 36.000003814697266 259.49520874023438
   vertex 159.00410461425781 36.000030517578125 259.49520874023438
   vertex 159.00410461425781 36.000003814697266 259.4952392578125
  endloop
 endfacet
 facet normal 0.94681362014708559 0.22018551146181595 -0.23465359414734924
  outer loop
   vertex 157.50173950195312 35.464241027832031 261.52499389648438
   vertex 157.50157165527344 35.467239379882812 261.52713012695312
   vertex 157.50213623046875 35.46533203125 261.52761840820312
  endloop
 endfacet
 facet normal -0.48338988662548504 0.4898505908038529 -0.72552092747026742
  outer loop
   vertex 157.50173950195312 35.464241027832031 261.52499389648438
   vertex 157.50074768066406 35.466381072998047 261.527099609375
   vertex 157.50157165527344 35.467239379882812 261.52713012695312
  endloop
 endfacet
 facet normal 0.56780728416787596 0.61151531719435981 -0.55103893227482814
  outer loop
   vertex 157.50157165527344 35.467239379882812 261.52713012695312
   vertex 157.50117492675781 35.4708251953125 261.53070068359375
   vertex 157.50198364257812 35.470844268798828 261.53155517578125
  endloop
 endfacet
 facet normal 0.94188756238542681 0.21211282105671356 -0.26049178675536244
  outer loop
   vertex 157.50157165527344 35.467239379882812 261.52713012695312
   vertex 157.50198364257812 35.470844268798828 261.53155517578125
   vertex 157.50213623046875 35.46533203125 261.52761840820312
  endloop
 endfacet
 facet normal 0.99970481286417912 0.013026698424900715 0.02050834621180778
  outer loop
   vertex 157.50213623046875 35.46533203125 261.52761840820312
   vertex 157.50198364257812 35.470844268798828 261.53155517578125
   vertex 157.50199890136719 35.468135833740234 261.53253173828125
  endloop
 endfacet
 facet normal -0.55533451680046231 0.55513762845493519 -0.61921384668257173
  outer loop
   vertex 157.50117492675781 35.4708251953125 261.53070068359375
   vertex 157.50157165527344 35.467239379882812 261.52713012695312
   vertex 157.50074768066406 35.466381072998047 261.527099609375
  endloop
 endfacet
 facet normal -0.94247052749092997 0.26043136681216661 -0.2095824610775317
  outer loop
   vertex 157.50117492675781 35.4708251953125 261.53070068359375
   vertex 157.50074768066406 35.466381072998047 261.527099609375
   vertex 157.5006103515625 35.470329284667969 261.53262329101562
  endloop
 endfacet
 facet normal -0.99969564908185649 -0.023256332161872895 -0.0082311737426853503
  outer loop
   vertex 157.5006103515625 35.470329284667969 261.53262329101562
   vertex 157.50074768066406 35.466381072998047 261.527099609375
   vertex 157.50074768066406 35.465419769287109 261.52981567382812
  endloop
 endfacet
 facet normal 0.97415971001708201 0.081446019835316033 0.21066420016799242
  outer loop
   vertex 157.50199890136719 35.468135833740234 261.53253173828125
   vertex 157.50198364257812 35.470844268798828 261.53155517578125
   vertex 157.50123596191406 35.471656799316406 261.53469848632812
  endloop
 endfacet
 facet normal 0.73891822910097338 -0.22969413214592521 0.63343543977268246
  outer loop
   vertex 157.50115966796875 35.467792510986328 261.53338623046875
   vertex 157.50199890136719 35.468135833740234 261.53253173828125
   vertex 157.50123596191406 35.471656799316406 261.53469848632812
  endloop
 endfacet
 facet normal -0.96688813634288273 -0.14653241232905689 0.20893918717276144
  outer loop
   vertex 157.5006103515625 35.470329284667969 261.53262329101562
   vertex 157.50074768066406 35.465419769287109 261.52981567382812
   vertex 157.50115966796875 35.467792510986328 261.53338623046875
  endloop
 endfacet
 facet normal -0.93359938920742414 -0.098554297540219923 0.34449852090811417
  outer loop
   vertex 157.50123596191406 35.471656799316406 261.53469848632812
   vertex 157.5006103515625 35.470329284667969 261.53262329101562
   vertex 157.50115966796875 35.467792510986328 261.53338623046875
  endloop
 endfacet
 facet normal -0.95764754485928283 -0.11027677932698356 -0.26598911963885991
  outer loop
   vertex 156.03718566894531 35.722930908203125 263.70352172851562
   vertex 156.01213073730469 35.59130859375 263.84829711914062
   vertex 155.94863891601562 35.784934997558594 263.99661254882812
  endloop
 endfacet
 facet normal 0.96817483910939584 -0.24426440151089898 -0.054519565937540759
  outer loop
   vertex 156.01213073730469 35.59130859375 263.84829711914062
   vertex 156.03718566894531 35.722930908203125 263.70352172851562
   vertex 156.04409790039062 35.656867980957031 264.12225341796875
  endloop
 endfacet
 facet normal -0.95891304768792007 -0.070818887791466834 -0.27471886012038604
  outer loop
   vertex 156.02166748046875 36.038768768310547 263.67626953125
   vertex 156.03718566894531 35.722930908203125 263.70352172851562
   vertex 155.94863891601562 35.784934997558594 263.99661254882812
  endloop
 endfacet
 facet normal -0.97302948379432785 -0.010857996118044387 -0.23042510190351295
  outer loop
   vertex 155.9298095703125 36.128467559814453 264.0599365234375
   vertex 156.02166748046875 36.038768768310547 263.67626953125
   vertex 155.94863891601562 35.784934997558594 263.99661254882812
  endloop
 endfacet
 facet normal 0.98679984786507835 -0.15666684439219911 -0.041006830182891425
  outer loop
   vertex 156.07327270507812 35.904510498046875 263.87820434570312
   vertex 156.04409790039062 35.656867980957031 264.12225341796875
   vertex 156.03718566894531 35.722930908203125 263.70352172851562
  endloop
 endfacet
 facet normal 0.97278524173054193 0.027949157592690958 -0.23001677778177446
  outer loop
   vertex 156.07327270507812 35.904510498046875 263.87820434570312
   vertex 156.03718566894531 35.722930908203125 263.70352172851562
   vertex 156.02166748046875 36.038768768310547 263.67626953125
  endloop
 endfacet
 facet normal 0.49012387321646078 0.72751388080225998 -0.48010638627634367
  outer loop
   vertex 157.50198364257812 35.470844268798828 261.53155517578125
   vertex 157.50117492675781 35.4708251953125 261.53070068359375
   vertex 157.50099182128906 35.472942352294922 261.53372192382812
  endloop
 endfacet
 facet normal -0.94812136044177753 0.23047465619770019 -0.21896876198349613
  outer loop
   vertex 157.50117492675781 35.4708251953125 261.53070068359375
   vertex 157.5006103515625 35.470329284667969 261.53262329101562
   vertex 157.50099182128906 35.472942352294922 261.53372192382812
  endloop
 endfacet
 facet normal -0.97108728959622426 0.022204188545371498 -0.23768981887262317
  outer loop
   vertex 156.00788879394531 36.345649719238281 263.76123046875
   vertex 156.02166748046875 36.038768768310547 263.67626953125
   vertex 155.9298095703125 36.128467559814453 264.0599365234375
  endloop
 endfacet
 facet normal -0.96498795310231733 0.25330902006047978 -0.068064606980421646
  outer loop
   vertex 155.96830749511719 36.343540191650391 264.31454467773438
   vertex 156.00788879394531 36.345649719238281 263.76123046875
   vertex 155.9298095703125 36.128467559814453 264.0599365234375
  endloop
 endfacet
 facet normal 0.94177853252795007 0.12832606200423838 -0.31078226699730649
  outer loop
   vertex 156.02166748046875 36.038768768310547 263.67626953125
   vertex 156.00788879394531 36.345649719238281 263.76123046875
   vertex 156.06173706054688 36.251708984375 263.8856201171875
  endloop
 endfacet
 facet normal 0.97384116332590986 0.037143895525139553 -0.2241734142070731
  outer loop
   vertex 156.02166748046875 36.038768768310547 263.67626953125
   vertex 156.06173706054688 36.251708984375 263.8856201171875
   vertex 156.07327270507812 35.904510498046875 263.87820434570312
  endloop
 endfacet
 facet normal 0.9445496679700468 0.29259727234730853 0.14903946105843743
  outer loop
   vertex 157.50099182128906 35.472942352294922 261.53372192382812
   vertex 157.50123596191406 35.471656799316406 261.53469848632812
   vertex 157.50198364257812 35.470844268798828 261.53155517578125
  endloop
 endfacet
 facet normal -0.96148900905748413 0.025299370143178249 0.27367650124191428
  outer loop
   vertex 157.5006103515625 35.470329284667969 261.53262329101562
   vertex 157.50123596191406 35.471656799316406 261.53469848632812
   vertex 157.50099182128906 35.472942352294922 261.53372192382812
  endloop
 endfacet
 facet normal -0.96707330713812056 0.2451772173055824 -0.068244785406866362
  outer loop
   vertex 156.00788879394531 36.345649719238281 263.76123046875
   vertex 155.96830749511719 36.343540191650391 264.31454467773438
   vertex 156.02806091308594 36.457206726074219 263.87615966796875
  endloop
 endfacet
 facet normal 0.94288637053758495 0.14061418752649968 -0.30198169236018674
  outer loop
   vertex 156.06173706054688 36.251708984375 263.8856201171875
   vertex 156.00788879394531 36.345649719238281 263.76123046875
   vertex 156.02806091308594 36.457206726074219 263.87615966796875
  endloop
 endfacet
 facet normal -0.96696826765346655 -0.22423556528277014 -0.12120553045785626
  outer loop
   vertex 156.01213073730469 35.59130859375 263.84829711914062
   vertex 155.94187927246094 35.631313323974609 264.33474731445312
   vertex 155.94863891601562 35.784934997558594 263.99661254882812
  endloop
 endfacet
 facet normal 0.51014584226245729 -0.84804674814645664 0.14341524528636532
  outer loop
   vertex 156.01213073730469 35.59130859375 263.84829711914062
   vertex 156.04409790039062 35.656867980957031 264.12225341796875
   vertex 155.94187927246094 35.631313323974609 264.33474731445312
  endloop
 endfacet
 facet normal -0.66598394864620203 -0.74562785329490699 0.022460733212468581
  outer loop
   vertex 155.94187927246094 35.631313323974609 264.33474731445312
   vertex 155.96647644042969 35.631141662597656 265.05838012695312
   vertex 155.65802001953125 35.918682098388672 265.45779418945312
  endloop
 endfacet
 facet normal -0.93825683213629241 -0.30751079178040108 -0.15846523242705371
  outer loop
   vertex 155.94187927246094 35.631313323974609 264.33474731445312
   vertex 155.65802001953125 35.918682098388672 265.45779418945312
   vertex 155.94863891601562 35.784934997558594 263.99661254882812
  endloop
 endfacet
 facet normal -0.98094391112307355 -0.018108323990126251 -0.19344542339594409
  outer loop
   vertex 155.94863891601562 35.784934997558594 263.99661254882812
   vertex 155.65802001953125 35.918682098388672 265.45779418945312
   vertex 155.9298095703125 36.128467559814453 264.0599365234375
  endloop
 endfacet
 facet normal 0.22695141784663864 -0.97387366986322588 -0.0079453813333911685
  outer loop
   vertex 155.96647644042969 35.631141662597656 265.05838012695312
   vertex 155.94187927246094 35.631313323974609 264.33474731445312
   vertex 156.04409790039062 35.656867980957031 264.12225341796875
  endloop
 endfacet
 facet normal 0.87169635919825994 -0.4864926905997109 0.058909416510031551
  outer loop
   vertex 155.96647644042969 35.631141662597656 265.05838012695312
   vertex 156.04409790039062 35.656867980957031 264.12225341796875
   vertex 156.13873291015625 35.928024291992188 264.96121215820312
  endloop
 endfacet
 facet normal 0.98372144922232285 -0.17083339779386475 -0.055749982404804721
  outer loop
   vertex 156.13873291015625 35.928024291992188 264.96121215820312
   vertex 156.04409790039062 35.656867980957031 264.12225341796875
   vertex 156.07327270507812 35.904510498046875 263.87820434570312
  endloop
 endfacet
 facet normal -0.11014163259686191 0.99038788661018651 0.083669915888007887
  outer loop
   vertex 156.09896850585938 36.265243530273438 265.413330078125
   vertex 156.06234741210938 36.353279113769531 264.32305908203125
   vertex 155.96830749511719 36.343540191650391 264.31454467773438
  endloop
 endfacet
 facet normal -0.6048496323774073 0.78599619355498385 0.12793320886302942
  outer loop
   vertex 156.09896850585938 36.265243530273438 265.413330078125
   vertex 155.96830749511719 36.343540191650391 264.31454467773438
   vertex 155.65802001953125 35.918682098388672 265.45779418945312
  endloop
 endfacet
 facet normal -0.93618979871725294 0.32527488108816111 -0.13321003156981909
  outer loop
   vertex 155.65802001953125 35.918682098388672 265.45779418945312
   vertex 155.96830749511719 36.343540191650391 264.31454467773438
   vertex 155.9298095703125 36.128467559814453 264.0599365234375
  endloop
 endfacet
 facet normal 0.98913434263044586 0.14543672165458235 -0.02148050798755748
  outer loop
   vertex 156.06234741210938 36.353279113769531 264.32305908203125
   vertex 156.09896850585938 36.265243530273438 265.413330078125
   vertex 156.13873291015625 35.928024291992188 264.96121215820312
  endloop
 endfacet
 facet normal 0.99094698599165143 0.13046357262549979 -0.031675340122132876
  outer loop
   vertex 156.06234741210938 36.353279113769531 264.32305908203125
   vertex 156.13873291015625 35.928024291992188 264.96121215820312
   vertex 156.06173706054688 36.251708984375 263.8856201171875
  endloop
 endfacet
 facet normal 0.99754060170881398 0.034447007550062803 -0.061042211733057072
  outer loop
   vertex 156.06173706054688 36.251708984375 263.8856201171875
   vertex 156.13873291015625 35.928024291992188 264.96121215820312
   vertex 156.07327270507812 35.904510498046875 263.87820434570312
  endloop
 endfacet
 facet normal -0.12106586683918499 0.96475552716952417 0.23364466328664565
  outer loop
   vertex 155.96830749511719 36.343540191650391 264.31454467773438
   vertex 156.06234741210938 36.353279113769531 264.32305908203125
   vertex 156.02806091308594 36.457206726074219 263.87615966796875
  endloop
 endfacet
 facet normal 0.9863866514655496 0.15987279289180795 -0.03849758308716833
  outer loop
   vertex 156.06173706054688 36.251708984375 263.8856201171875
   vertex 156.02806091308594 36.457206726074219 263.87615966796875
   vertex 156.06234741210938 36.353279113769531 264.32305908203125
  endloop
 endfacet
 facet normal -0.20982247466031534 -0.20982353992746497 -0.95496000503671818
  outer loop
   vertex 154.95590209960938 34.920803070068359 266.64968872070312
   vertex 154.49589538574219 33.745895385742188 267.0089111328125
   vertex 153.74452209472656 34.497264862060547 267.0089111328125
  endloop
 endfacet
 facet normal 0.40959148910906956 -0.40959356860202578 -0.81514901742520229
  outer loop
   vertex 154.49589538574219 33.745895385742188 267.0089111328125
   vertex 154.95590209960938 34.920803070068359 266.64968872070312
   vertex 155.24726867675781 34.497264862060547 267.0089111328125
  endloop
 endfacet
 facet normal -0.19155735346602298 -0.25579112781140384 -0.94756354893276851
  outer loop
   vertex 154.57926940917969 35.623970031738281 266.5360107421875
   vertex 154.95590209960938 34.920803070068359 266.64968872070312
   vertex 153.74452209472656 34.497264862060547 267.0089111328125
  endloop
 endfacet
 facet normal -0.49291545585852214 0 -0.87007721115759906
  outer loop
   vertex 153.74452209472656 36.000003814697266 267.0089111328125
   vertex 154.57926940917969 35.623970031738281 266.5360107421875
   vertex 153.74452209472656 34.497264862060547 267.0089111328125
  endloop
 endfacet
 facet normal -0.75277968469032031 -0.64820138315111619 -0.11470707562535927
  outer loop
   vertex 155.65802001953125 35.918682098388672 265.45779418945312
   vertex 155.96647644042969 35.631141662597656 265.05838012695312
   vertex 155.99862670898438 35.248634338378906 267.0089111328125
  endloop
 endfacet
 facet normal 0.40317651843348951 -0.80454091721450971 -0.43607637807095839
  outer loop
   vertex 155.65802001953125 35.918682098388672 265.45779418945312
   vertex 155.99862670898438 35.248634338378906 267.0089111328125
   vertex 154.95590209960938 34.920803070068359 266.64968872070312
  endloop
 endfacet
 facet normal -0.58004971605362843 -0.4232098327351258 -0.6960141984057594
  outer loop
   vertex 155.65802001953125 35.918682098388672 265.45779418945312
   vertex 154.95590209960938 34.920803070068359 266.64968872070312
   vertex 154.57926940917969 35.623970031738281 266.5360107421875
  endloop
 endfacet
 facet normal 0.40959615904949487 -0.40958992049949844 -0.81514850396545246
  outer loop
   vertex 155.24726867675781 34.497264862060547 267.0089111328125
   vertex 154.95590209960938 34.920803070068359 266.64968872070312
   vertex 155.99862670898438 35.248634338378906 267.0089111328125
  endloop
 endfacet
 facet normal 0.84186137846879672 -0.52681737148486163 -0.1171873565893473
  outer loop
   vertex 155.99862670898438 35.248634338378906 267.0089111328125
   vertex 155.96647644042969 35.631141662597656 265.05838012695312
   vertex 156.13873291015625 35.928024291992188 264.96121215820312
  endloop
 endfacet
 facet normal 0.6951538423573369 -0.69515737164824531 -0.18307748113554023
  outer loop
   vertex 156.75 36.000003814697266 267.0089111328125
   vertex 155.99862670898438 35.248634338378906 267.0089111328125
   vertex 156.13873291015625 35.928024291992188 264.96121215820312
  endloop
 endfacet
 facet normal -0.41427917258219016 0.19764423367959705 -0.88843093375783633
  outer loop
   vertex 154.78285217285156 36.792427062988281 266.70101928710938
   vertex 154.57926940917969 35.623970031738281 266.5360107421875
   vertex 153.74452209472656 36.000003814697266 267.0089111328125
  endloop
 endfacet
 facet normal -0.28429075931560782 0 -0.95873811031363265
  outer loop
   vertex 153.74452209472656 37.502742767333984 267.0089111328125
   vertex 154.78285217285156 36.792427062988281 266.70101928710938
   vertex 153.74452209472656 36.000003814697266 267.0089111328125
  endloop
 endfacet
 facet normal -0.71906711260618994 0.21844887102724214 -0.65971401251991024
  outer loop
   vertex 155.65802001953125 35.918682098388672 265.45779418945312
   vertex 154.57926940917969 35.623970031738281 266.5360107421875
   vertex 154.78285217285156 36.792427062988281 266.70101928710938
  endloop
 endfacet
 facet normal 0.15385326781410508 0.8561047578896448 -0.49336985670147493
  outer loop
   vertex 155.65802001953125 35.918682098388672 265.45779418945312
   vertex 154.78285217285156 36.792427062988281 266.70101928710938
   vertex 155.99862670898438 36.751373291015625 267.0089111328125
  endloop
 endfacet
 facet normal -0.61217178656339943 0.74484358305889165 -0.26543123499650123
  outer loop
   vertex 155.65802001953125 35.918682098388672 265.45779418945312
   vertex 155.99862670898438 36.751373291015625 267.0089111328125
   vertex 156.09896850585938 36.265243530273438 265.413330078125
  endloop
 endfacet
 facet normal 0.24575870907852593 0.24575496593308921 -0.93766046820332716
  outer loop
   vertex 155.99862670898438 36.751373291015625 267.0089111328125
   vertex 154.78285217285156 36.792427062988281 266.70101928710938
   vertex 155.24726867675781 37.502742767333984 267.0089111328125
  endloop
 endfacet
 facet normal 0.84619016590376261 0.46013335517713538 -0.26877406605026954
  outer loop
   vertex 156.75 36.000003814697266 267.0089111328125
   vertex 156.13873291015625 35.928024291992188 264.96121215820312
   vertex 156.09896850585938 36.265243530273438 265.413330078125
  endloop
 endfacet
 facet normal 0.69699172591262659 0.69699526453445615 -0.16852339667203931
  outer loop
   vertex 155.99862670898438 36.751373291015625 267.0089111328125
   vertex 156.75 36.000003814697266 267.0089111328125
   vertex 156.09896850585938 36.265243530273438 265.413330078125
  endloop
 endfacet
 facet normal -0.17085680134385717 0.170857668782572 -0.97036880125688851
  outer loop
   vertex 154.78285217285156 36.792427062988281 266.70101928710938
   vertex 153.74452209472656 37.502742767333984 267.0089111328125
   vertex 154.49589538574219 38.254112243652344 267.0089111328125
  endloop
 endfacet
 facet normal 0.24575575440167302 0.24575700210181772 -0.93766070894348108
  outer loop
   vertex 155.24726867675781 37.502742767333984 267.0089111328125
   vertex 154.78285217285156 36.792427062988281 266.70101928710938
   vertex 154.49589538574219 38.254112243652344 267.0089111328125
  endloop
 endfacet
endsolid
